# xmcd CD database file
#
# Track frame offsets:
#	150
#	11558
#	27957
#	42806
#	59410
#	71061
#	84121
#	100836
#	115032
#	131130
#
# Disc length: 2081 seconds
#
# Revision: 1
# Processed by: cddbd v1.5.2PL0 Copyright (c) Steve Scherf et al.
# Submitted via: CDex 1.70beta1
#
DISCID=7b081f0a
DTITLE=Vocaluptuous - All Wrapped Up
DYEAR=2003
DGENRE=Acapella
TTITLE0=Jingle Bells
TTITLE1=Quando (Someday)
TTITLE2=Hark The Herald Angels Sing
TTITLE3=The Christmas Song
TTITLE4=God Rest Ye Merry Gentlemen
TTITLE5=Do You Hear What I Hear
TTITLE6=Silent Night
TTITLE7=Last Christmas
TTITLE8=O Holy Night
TTITLE9=African Noel /O Sifuni Mungu
EXTD=YEAR: 2003
EXTT0=
EXTT1=
EXTT2=
EXTT3=
EXTT4=
EXTT5=
EXTT6=
EXTT7=
EXTT8=
EXTT9=
PLAYORDER=
